<?xml version="1.0" encoding="UTF-8"?>
<svg width="73px" height="30px" viewBox="0 0 73 30" version="1.1" xmlns="http://www.w3.org/2000/svg" xmlns:xlink="http://www.w3.org/1999/xlink">
    <!-- Generator: Sketch 52.5 (67469) - http://www.bohemiancoding.com/sketch -->
    <title>logo_black</title>
    <desc>Created with Sketch.</desc>
    <g id="Page-1" stroke="none" stroke-width="1" fill="none" fill-rule="evenodd">
        <g id="logo_black">
            <g>
                <rect id="bg" x="0" y="0" width="73" height="30"></rect>
                <g id="Group" transform="translate(1.000000, 1.000000)">
                    <path d="M58.5521269,9.9065222 L58.5521269,21.2749548 C58.5521269,23.6505984 56.539908,25.5652174 54.0708927,25.5652174 C53.5209111,25.5652174 53.0750628,25.1291817 53.0750628,24.5913044 C53.0750628,24.0534271 53.5209111,23.6173913 54.0708927,23.6173913 C55.4520007,23.6173913 56.5604673,22.5626894 56.5604673,21.2749548 L56.5604673,17.4106756 L53.9428196,18.4346903 C53.4321745,18.6344529 52.852631,18.3915435 52.648373,17.892137 C52.4441149,17.3927304 52.6924906,16.8259418 53.2031359,16.6261792 L56.5604673,15.3128027 L56.5604673,9.9065222 L53.0750628,9.9065222 C52.5250812,9.9065222 52.0792329,9.47048662 52.0792329,8.9326093 C52.0792329,8.39473199 52.5250812,7.95869504 53.0750628,7.95869504 L56.5604673,7.95869504 L56.5604673,5.03695637 C56.5604673,4.49907905 57.0063155,4.06304348 57.5562972,4.06304348 C58.1062787,4.06304348 58.5521269,4.49907905 58.5521269,5.03695637 L58.5521269,7.95869504 L67.5012342,7.95869504 C69.4315955,7.95869504 71,9.47886812 71,11.3585736 L71,18.7566436 C71,20.636349 69.4315955,22.1565217 67.5012342,22.1565217 L64.622858,22.1565217 C62.692497,22.1565217 61.1240923,20.636349 61.1240923,18.7566436 L61.1240923,12.4289833 C61.1240923,11.8847039 61.5699406,11.4434783 62.1199222,11.4434783 C62.6699039,11.4434783 63.115752,11.8847039 63.115752,12.4289833 L63.115752,18.7566436 C63.115752,19.5566592 63.7884762,20.2086957 64.622858,20.2086957 L67.5012342,20.2086957 C68.3356162,20.2086957 69.0083402,19.5566592 69.0083402,18.7566436 L69.0083402,11.3585736 C69.0083402,10.5585579 68.3356162,9.9065222 67.5012342,9.9065222 L58.5521269,9.9065222 Z M36.0767139,15.6377149 C35.7645666,17.8781994 35.2900358,19.7781846 34.7020513,21.3599933 C34.3836599,22.2165368 34.0503159,22.9301482 33.72024,23.5089935 C33.5125181,23.8732699 33.3444648,24.1196766 33.2344656,24.2565563 C32.9092245,24.6612771 32.3193783,24.7241684 31.9170073,24.3970281 C31.5146362,24.0698877 31.45211,23.4765972 31.7773511,23.0718764 C31.7817345,23.0664218 31.8042961,23.0359954 31.8428338,22.9794898 C31.9160836,22.8720879 32.0008713,22.7364215 32.0949895,22.5713691 C32.374391,22.0813901 32.6643602,21.4606339 32.9470978,20.7000071 C33.4866929,19.2483767 33.9278492,17.4820206 34.2212377,15.3761796 C34.3800425,14.236334 34.5571914,12.5585374 34.7522584,10.3456005 L31.8033044,10.3456005 C31.2859223,10.3456005 30.8665012,9.92373025 30.8665012,9.4033269 C30.8665012,8.88292356 31.2859223,8.4610533 31.8033044,8.4610533 L34.9121336,8.4610533 C35.0096533,7.27030396 35.1112181,5.95814311 35.2167819,4.52487514 C35.2550061,4.005894 35.7042678,3.61634449 36.220236,3.65479196 C36.7362042,3.69323943 37.1234921,4.1451246 37.0852678,4.66410575 C36.9839135,6.04022118 36.8861943,7.30578255 36.7920703,8.4610533 L44.2159461,8.4610533 C45.2507103,8.4610533 46.0895525,9.30479383 46.0895525,10.3456005 L45.621151,22.5951573 C45.621151,23.635964 44.7823088,24.4797045 43.7475446,24.4797045 L41.1713359,24.4797045 C40.6539538,24.4797045 40.2345328,24.0578342 40.2345328,23.5374309 C40.2345328,23.0170275 40.6539538,22.5951573 41.1713359,22.5951573 L43.071446,22.5951573 C43.448976,22.5951573 43.7590196,22.2950671 43.7735292,21.915613 L44.1878844,11.0794666 C44.2027978,10.6894524 43.9005543,10.3611232 43.5128043,10.3461226 C43.5038075,10.3457746 43.4948047,10.3456005 43.4858011,10.3456005 L36.633173,10.3456005 C36.4295564,12.672363 36.2442242,14.4353841 36.0767139,15.6377149 Z" id="text" fill="#000000" fill-rule="nonzero"></path>
                    <g id="path">
                        <path d="M16.8913314,20.95369 C17.5152979,20.325573 18.5253228,20.3272135 19.1472854,20.9573542 C19.7692478,21.5874949 19.7676234,22.6075142 19.143657,23.2356312 L16.3729605,26.0247582 C13.8167692,28.5980255 9.6484685,28.6353409 7.04916582,26.1114388 C7.03414261,26.0969279 5.87673198,24.9528262 2.05853679,21.1783473 C-0.481615206,18.6673956 -0.734675478,14.6495177 1.6556754,12.0693532 L6.11246394,7.25844406 C8.4848455,4.69740599 12.857993,4.41749809 15.570477,6.62891757 L19.6183068,9.92915909 C20.3038016,10.4880506 20.4108729,11.5023237 19.8574575,12.1946014 C19.3040422,12.8868792 18.2997073,12.99501 17.6142127,12.4361185 L13.56641,9.13589925 C12.1478363,7.979372 9.66634514,8.13820245 8.44227092,9.4596175 L3.98542508,14.2705885 C2.82174296,15.5266766 2.94919181,17.5502022 4.29024469,18.8758389 C7.09402368,21.6475162 9.2548629,23.7835081 9.25736298,23.7859306 C10.6087226,25.098086 12.7937907,25.0785249 14.1206191,23.742833 L16.8913314,20.95369 Z" id="combined_shape" fill="#FFA116"></path>
                        <path d="M10.1605431,18.1625182 C9.27953723,18.1625182 8.56534081,17.4412547 8.56534081,16.5515311 C8.56534081,15.6618074 9.27953723,14.9405439 10.1605431,14.9405439 L21.9251603,14.9405439 C22.8061662,14.9405439 23.5203626,15.6618074 23.5203626,16.5515311 C23.5203626,17.4412547 22.8061662,18.1625182 21.9251603,18.1625182 L10.1605431,18.1625182 Z" id="path_2" fill="#B3B3B3"></path>
                        <path d="M12.3638108,0.510394599 C12.9656986,-0.139324079 13.9751653,-0.173270545 14.6185179,0.434573045 C15.2618705,1.04241664 15.2954844,2.06187229 14.6935966,2.71159097 L3.98550567,14.2706339 C2.82178263,15.5266266 2.94923072,17.5501399 4.29019529,18.87583 L9.23535013,23.7644602 C9.86492719,24.3868409 9.87570452,25.4068035 9.25942198,26.0426104 C8.64313945,26.6784172 7.6331707,26.6893012 7.00359366,26.0669205 L2.05841595,21.1782677 C-0.481587518,18.6671965 -0.734646907,14.6493327 1.65581048,12.0693397 L12.3638108,0.510394599 Z" id="stroke_3" fill="#000000"></path>
                    </g>
                </g>
            </g>
        </g>
    </g>
</svg>
