<?xml version="1.0" encoding="utf-8"?>
<!-- Generator: Adobe Illustrator 15.0.2, SVG Export Plug-In  -->
<!DOCTYPE svg PUBLIC "-//W3C//DTD SVG 1.1//EN" "http://www.w3.org/Graphics/SVG/1.1/DTD/svg11.dtd" [
	<!ENTITY ns_flows "http://ns.adobe.com/Flows/1.0/">
]>
<svg version="1.1"
	 xmlns="http://www.w3.org/2000/svg" xmlns:xlink="http://www.w3.org/1999/xlink" xmlns:a="http://ns.adobe.com/AdobeSVGViewerExtensions/3.0/"
	 x="0px" y="0px" width="256px" height="256px" viewBox="-0.297 -11.374 256 256"
	 overflow="visible" enable-background="new -0.297 -11.374 256 256" xml:space="preserve">
<defs>
</defs>
<radialGradient id="SVGID_1_" cx="36.8247" cy="105.9233" r="117.5813" gradientTransform="matrix(0.8686 -0.3484 0.3484 0.8686 -11.5508 -3.4036)" gradientUnits="userSpaceOnUse">
	<stop  offset="0.0184" style="stop-color:#DFE7EA"/>
	<stop  offset="0.2109" style="stop-color:#D5DEE4"/>
	<stop  offset="0.542" style="stop-color:#BBC8D4"/>
	<stop  offset="0.9695" style="stop-color:#93A8BD"/>
	<stop  offset="1" style="stop-color:#90A6BB"/>
</radialGradient>
<circle fill="url(#SVGID_1_)" cx="112.963" cy="112.988" r="110.928"/>
<path fill="#FDFEFF" d="M112.996,225.978c-46.421,0-87.587-27.845-104.874-70.938c-23.188-57.809,4.98-123.706,62.79-146.892
	C84.393,2.741,98.528,0,112.927,0c46.425,0,87.592,27.844,104.877,70.936c23.186,57.809-4.981,123.704-62.79,146.892
	C141.533,223.235,127.396,225.978,112.996,225.978z M112.927,4.062c-13.878,0-27.506,2.643-40.502,7.856
	C16.693,34.271-10.461,97.797,11.892,153.526c16.665,41.545,56.351,68.391,101.104,68.391c13.88,0,27.51-2.646,40.507-7.857
	c55.729-22.354,82.884-85.88,60.53-141.611C197.372,30.905,157.684,4.062,112.927,4.062z"/>
<path fill="#FFFFFF" d="M71.703,28.494c0,0-4.733,12.596,2.549,17.126c10.095,6.282,28.241,16.531,16.155,49.821
	c-10.93,30.109,11.292,57.077,36.673,68.199c45.667,20.006,42.191,43.072,42.191,43.072c-7.685-30.864-43.792-35.012-43.792-35.012
	c-25.311-4.408-34.963,14.024-49.272,10.484c-24.265-6.007-30.163,4.059-30.163,4.059c54.579,61.795,128.294,26.177,128.294,26.177
	c15.359-21.258,18.548-49.147,18.415-69.775C192.189,57.242,71.703,28.494,71.703,28.494z"/>
<ellipse transform="matrix(0.8967 0.4426 -0.4426 0.8967 32.2978 -5.1005)" fill="#FFFFFF" cx="27.076" cy="66.646" rx="3.49" ry="6.984"/>
<ellipse transform="matrix(0.2049 0.9788 -0.9788 0.2049 86.3775 -75.5887)" fill="#FFFFFF" cx="89.716" cy="15.374" rx="3.491" ry="6.983"/>
<path fill="#FFFFFF" d="M29.354,169.741c-2.347-3.063-3.014-6.492-1.484-7.666c1.529-1.173,4.675,0.354,7.02,3.41
	c2.349,3.063,3.012,6.493,1.484,7.67C34.842,174.327,31.701,172.799,29.354,169.741z"/>
<path fill="#FFFFFF" d="M201.552,72.791c-1.718-3.454-1.709-6.949,0.017-7.808s4.516,1.244,6.233,4.697
	c1.718,3.451,1.711,6.948-0.015,7.81C206.057,78.346,203.271,76.243,201.552,72.791z"/>
<path fill="#FFFFFF" d="M195.656,164.183c2.102-3.234,5.115-5.007,6.735-3.957c1.619,1.048,1.226,4.523-0.872,7.754
	c-2.104,3.234-5.118,5.01-6.738,3.959C193.168,170.892,193.557,167.417,195.656,164.183z"/>
<path fill="#FFFFFF" d="M85.861,66.882c-2.655,2.523-6.545,2.737-8.693,0.479c-2.15-2.259-1.741-6.134,0.909-8.656
	c2.649-2.523,6.544-2.74,8.691-0.479C88.918,60.482,88.51,64.359,85.861,66.882z"/>
<path fill="#FFFFFF" d="M138.997,50.698c-3.561-0.852-5.857-4.002-5.131-7.033c0.728-3.034,4.202-4.798,7.761-3.946
	c3.56,0.854,5.853,4.001,5.126,7.035C146.027,49.784,142.551,51.551,138.997,50.698z"/>
<path fill="#FFFFFF" d="M56.879,121.17c-0.806,3.571-3.924,5.906-6.964,5.22c-3.043-0.687-4.852-4.136-4.045-7.703
	c0.804-3.573,3.921-5.909,6.963-5.223C55.875,114.151,57.687,117.6,56.879,121.17z"/>
<circle fill="#FFFFFF" cx="104.679" cy="123.347" r="6.382"/>
<path fill="#FFFFFF" d="M96.958,124.261c-19.438,0-45.383-3.621-45.679-3.662l-0.745-0.104l0.183-0.729
	c6.851-27.394,27.838-55.254,29.865-57.897c-0.849-17.084,4.217-40.347,5.465-45.765C48.12,28.108,29.91,61.732,29.728,62.074
	l-1.196-0.635c0.186-0.35,19-35.125,58.25-46.981l1.136-0.343l-0.283,1.153c-0.067,0.273-6.71,27.608-5.688,46.778L81.96,62.3
	l-0.156,0.2c-0.224,0.286-22.294,28.732-29.587,56.86c5.042,0.68,34.301,4.465,51.967,3.34c1.549-4.521,15.183-43.554,35.548-77.835
	l1.163,0.691c-21.469,36.14-35.435,77.59-35.574,78.007l-0.143,0.428l-0.452,0.031C102.328,124.186,99.708,124.261,96.958,124.261z"
	/>
<path fill="#FFFFFF" d="M99.208,190.549l-1.149-0.981c-45.667-38.944-47.35-69.312-47.361-69.614l1.353-0.052
	c0.011,0.294,1.697,29.625,45.75,67.661c-0.057-7.079,0.061-37.697,5.826-61.335l1.316,0.322
	c-6.487,26.59-5.776,62.132-5.769,62.488L99.208,190.549z"/>
<path fill="#FFFFFF" d="M204.065,71.536c-0.076-0.154-7.753-15.538-25.379-30.043c-15.739-12.957-42.777-27.763-83.036-26.094
	c9.047,2.855,31.887,11.419,45.128,28.419l0.127,0.163l0.082,1.182l-1.351,0.094l-0.054-0.77
	c-16.439-20.94-47.788-28.815-48.104-28.892l-4.248-1.041l4.364-0.292c42.932-2.875,71.553,12.674,88,26.225
	c17.828,14.691,25.608,30.296,25.686,30.452L204.065,71.536z"/>
<path fill="#FFFFFF" d="M32.498,170.109l-1.07-1.672c-32.271-50.435-6.232-100.708-5.965-101.21l0.846-1.591l0.411,1.754
	c7.348,31.373,24.988,51.89,25.165,52.093l0.383,0.439l-0.378,0.443c-16.535,19.457-19.192,47.487-19.217,47.768L32.498,170.109z
	 M25.848,69.548c-4.11,8.995-21.389,52.501,5.708,96.546c0.916-6.68,4.944-29.396,18.935-46.167
	C47.927,116.814,32.886,97.679,25.848,69.548z"/>
<path fill="#FFFFFF" d="M199.885,168.02l-0.536-2.282c-0.153-0.64-15.596-64.845-58.053-119.917l-1.208-1.57l1.916,0.501
	c0.353,0.092,35.585,9.426,63.152,27.57l0.188,0.125l0.077,0.213c0.14,0.389,13.683,39.492-4.775,93.143L199.885,168.02z
	 M143.599,46.601c37.289,49.123,53.394,104.872,56.498,116.597c16.546-50.071,5.15-86.768,4.123-89.873
	C180.569,57.817,151.315,48.814,143.599,46.601z"/>
<path fill="#FFFFFF" d="M109.691,212.62c-45.342,0-77.017-41.659-77.34-42.091l1.084-0.812c0.328,0.439,33.35,43.815,79.864,41.46
	l0.067,1.35C112.134,212.589,110.905,212.62,109.691,212.62z"/>
<path fill="#FFFFFF" d="M106.552,124.479l-0.792-1.097c41.647-30.015,98.224-50.922,98.792-51.129l0.466,1.271
	C204.453,73.73,148.045,94.576,106.552,124.479z"/>
<path fill="#FFFFFF" d="M199.794,167.946c-46.992-13.269-95-43.724-95.479-44.031l0.729-1.139
	c0.478,0.304,48.322,30.653,95.118,43.865L199.794,167.946z"/>
<path fill="#FFFFFF" d="M121.24,211.986l-0.208-1.339c51.984-8.098,75.536-42.6,75.767-42.947l1.126,0.751
	C197.689,168.805,173.806,203.795,121.24,211.986z"/>
<path fill="#FFFFFF" d="M104.106,123.706c-16.472-26.257-23.492-60.677-23.56-61.021l1.328-0.267
	c0.069,0.343,7.042,34.525,23.379,60.568L104.106,123.706z"/>
<path fill="#FFFFFF" d="M27.357,67.262l-0.565-1.231c0.238-0.107,24.026-10.765,58.188-4.72l-0.234,1.333
	C50.988,56.672,27.59,67.155,27.357,67.262z"/>
<path opacity="0.74" fill="#324051" d="M221.397,69.496c-13.418-33.447-40.562-57.279-72.347-67.621
	c-1.05,0.778-4.827,3.816-5.692,8.072c-0.628,3.083,0.013,11.667,7.549,21.198c4.246,5.376,4.527,25.184-14.811,53.57
	c-19.215,28.203-16.781,66.127,5.573,82.811c37.012,27.623,27.846,41.615,27.846,41.615c-10.119-28.054-26.743-27.66-26.743-27.66
	c-26.428-3.62-27.768,12.333-48.591,19.755c-23.672,8.438-21.083,21.496-21.083,21.496c5.572,1.968,10.968,3.498,16.186,4.667
	c21.745,4.52,45.013,2.907,67.172-5.979C216.342,197.399,245.416,129.383,221.397,69.496z"/>
<linearGradient id="SVGID_2_" gradientUnits="userSpaceOnUse" x1="161.2842" y1="135.3359" x2="255.4873" y2="135.3359">
	<stop  offset="0" style="stop-color:#90A6BB"/>
	<stop  offset="0.2033" style="stop-color:#738397"/>
	<stop  offset="0.5568" style="stop-color:#4D5A6B"/>
	<stop  offset="0.8345" style="stop-color:#374554"/>
	<stop  offset="1" style="stop-color:#2F3D4C"/>
</linearGradient>
<path fill="url(#SVGID_2_)" d="M253.401,47.738c-0.355-0.219-0.789,0.325-0.67,1.373c6.225,55.01-16.817,99.559-34.9,125.169
	c33.947-57.515,19.126-106.136,19.126-106.136c-0.309-0.163-0.64,0.313-0.487,1.181c11.978,67.659-31.11,119.438-37.133,126.286
	c-0.004-0.005-0.01-0.014-0.01-0.014c-0.048,0.066-0.099,0.127-0.147,0.191c-0.351,0.394-0.543,0.601-0.543,0.601l0.029,0.06
	c-14.286,18.376-37.382,26.129-37.382,26.129c26.436,3.52,35.086-17.092,35.086-17.092c2.737-1.647,3.901-3.369,4.271-4.904
	C271.576,124.273,253.401,47.738,253.401,47.738z"/>
</svg>
