<?xml version="1.0" encoding="utf-8"?>
<!-- Generator: Adobe Illustrator 15.0.2, SVG Export Plug-In  -->
<!DOCTYPE svg PUBLIC "-//W3C//DTD SVG 1.1//EN" "http://www.w3.org/Graphics/SVG/1.1/DTD/svg11.dtd" [
	<!ENTITY ns_flows "http://ns.adobe.com/Flows/1.0/">
]>
<svg version="1.1"
	 xmlns="http://www.w3.org/2000/svg" xmlns:xlink="http://www.w3.org/1999/xlink" xmlns:a="http://ns.adobe.com/AdobeSVGViewerExtensions/3.0/"
	 x="0px" y="0px" width="450px" height="224px" viewBox="0.171 0.692 450 224"
	 overflow="visible" enable-background="new 0.171 0.692 450 224" xml:space="preserve">
<defs>
</defs>
<linearGradient id="SVGID_1_" gradientUnits="userSpaceOnUse" x1="256.6943" y1="97.7744" x2="256.6943" y2="196.7805">
	<stop  offset="0" style="stop-color:#90A6BB"/>
	<stop  offset="0.2033" style="stop-color:#738397"/>
	<stop  offset="0.5568" style="stop-color:#4D5A6B"/>
	<stop  offset="0.8345" style="stop-color:#374554"/>
	<stop  offset="1" style="stop-color:#2F3D4C"/>
</linearGradient>
<path fill="url(#SVGID_1_)" d="M284.056,190.628c0,4.834-2.159,7.255-6.482,7.255c-2.934,0-5.283-1.851-7.055-5.551l-33.089-70.148
	c-0.38-0.788-0.898-1.185-1.545-1.185c-1.03,0-1.548,0.697-1.548,2.082v74.521h-5.003v-73.958c0-4.838,2.153-7.254,6.467-7.254
	c2.963,0,5.31,1.838,7.028,5.51l33.188,70.078c0.384,0.786,0.876,1.183,1.489,1.183c1.033,0,1.547-0.657,1.547-1.972v-74.125h5.003
	V190.628z"/>
<linearGradient id="SVGID_2_" gradientUnits="userSpaceOnUse" x1="319.0244" y1="97.7764" x2="319.0244" y2="196.7791">
	<stop  offset="0" style="stop-color:#90A6BB"/>
	<stop  offset="0.2033" style="stop-color:#738397"/>
	<stop  offset="0.5568" style="stop-color:#4D5A6B"/>
	<stop  offset="0.8345" style="stop-color:#374554"/>
	<stop  offset="1" style="stop-color:#2F3D4C"/>
</linearGradient>
<path fill="url(#SVGID_2_)" d="M346.415,169.487c0,0.973-0.094,1.794-0.286,2.47h-49.491c0.378,6.692,2.645,12.067,6.808,16.126
	c4.158,4.06,9.578,6.087,16.252,6.087c3.488,0,7.033-0.579,10.633-1.742c4.052-1.276,7.121-3.021,9.22-5.233l3.491,3.321
	c-5.252,5.398-13.031,8.099-23.344,8.099c-8.319,0-15.083-2.617-20.272-7.846c-5.193-5.232-7.791-12.008-7.791-20.332
	c0-8.175,2.55-14.923,7.648-20.248c5.099-5.324,11.717-7.989,19.854-7.989c7.909,0,14.433,2.576,19.571,7.723
	C343.843,155.069,346.415,161.59,346.415,169.487z M341.409,167.513c-0.6-6.26-2.905-11.333-6.918-15.215
	c-4.012-3.881-9.15-5.82-15.411-5.82c-6.262,0-11.412,1.938-15.469,5.82c-4.048,3.882-6.372,8.955-6.974,15.215H341.409z"/>
<linearGradient id="SVGID_3_" gradientUnits="userSpaceOnUse" x1="363.7217" y1="97.7759" x2="363.7217" y2="196.7793">
	<stop  offset="0" style="stop-color:#90A6BB"/>
	<stop  offset="0.2033" style="stop-color:#738397"/>
	<stop  offset="0.5568" style="stop-color:#4D5A6B"/>
	<stop  offset="0.8345" style="stop-color:#374554"/>
	<stop  offset="1" style="stop-color:#2F3D4C"/>
</linearGradient>
<path fill="url(#SVGID_3_)" d="M373.451,147.66h-14.733v38.86c0,4.428,1.573,6.641,4.723,6.641h3.261v4.441h-2.418
	c-6.859,0-10.292-3.523-10.292-10.572v-59.223h4.727v15.41h14.733V147.66z"/>
<linearGradient id="SVGID_4_" gradientUnits="userSpaceOnUse" x1="388.6201" y1="97.7759" x2="388.6201" y2="196.7793">
	<stop  offset="0" style="stop-color:#90A6BB"/>
	<stop  offset="0.2033" style="stop-color:#738397"/>
	<stop  offset="0.5568" style="stop-color:#4D5A6B"/>
	<stop  offset="0.8345" style="stop-color:#374554"/>
	<stop  offset="1" style="stop-color:#2F3D4C"/>
</linearGradient>
<path fill="url(#SVGID_4_)" d="M398.348,147.66H383.61v38.86c0,4.428,1.581,6.641,4.73,6.641h3.26v4.441h-2.416
	c-6.863,0-10.293-3.523-10.293-10.572v-59.223h4.719v15.41h14.737V147.66z"/>
<linearGradient id="SVGID_5_" gradientUnits="userSpaceOnUse" x1="426.1738" y1="97.7754" x2="426.1738" y2="196.7803">
	<stop  offset="0" style="stop-color:#90A6BB"/>
	<stop  offset="0.2033" style="stop-color:#738397"/>
	<stop  offset="0.5568" style="stop-color:#4D5A6B"/>
	<stop  offset="0.8345" style="stop-color:#374554"/>
	<stop  offset="1" style="stop-color:#2F3D4C"/>
</linearGradient>
<path fill="url(#SVGID_5_)" d="M448.56,195.915c0,8.437-2.308,15.149-6.918,20.135c-4.763,5.174-11.325,7.764-19.688,7.764
	c-6.412,0-12.463-1.803-18.165-5.401l1.633-4.727c3.147,2.291,6.58,3.826,10.293,4.615c2.473,0.522,4.631,0.784,6.465,0.784
	c6.938,0,12.317-2.155,16.141-6.466c3.68-4.126,5.513-9.692,5.513-16.705v-5.512c-4.085,5.476-9.875,8.213-17.379,8.213
	c-7.195,0-12.747-2.364-16.644-7.089c-3.638-4.345-5.462-10.196-5.462-17.545v-30.764h4.616v32.285c0,5.51,1.52,9.987,4.555,13.439
	c3.186,3.635,7.498,5.455,12.935,5.455c5.36,0,9.641-1.836,12.827-5.512c3.033-3.487,4.552-7.948,4.552-13.382v-32.285h4.728
	V195.915z"/>
<radialGradient id="SVGID_6_" cx="209.918" cy="312.8652" r="178.5388" gradientTransform="matrix(0.5071 -0.2034 0.2034 0.5071 -119.2401 -48.7879)" gradientUnits="userSpaceOnUse">
	<stop  offset="0.0184" style="stop-color:#DFE7EA"/>
	<stop  offset="0.2109" style="stop-color:#D5DEE4"/>
	<stop  offset="0.542" style="stop-color:#BBC8D4"/>
	<stop  offset="0.9695" style="stop-color:#93A8BD"/>
	<stop  offset="1" style="stop-color:#90A6BB"/>
</radialGradient>
<circle fill="url(#SVGID_6_)" cx="100.124" cy="100.146" r="98.32"/>
<path fill="#FDFEFF" d="M100.153,200.293c-41.145,0-77.633-24.68-92.954-62.875C-13.354,86.18,11.612,27.773,62.853,7.222
	C74.801,2.43,87.329,0,100.093,0c41.148,0,77.636,24.68,92.957,62.873c20.55,51.239-4.415,109.645-55.654,130.196
	C125.446,197.862,112.917,200.293,100.153,200.293z M100.093,3.6c-12.302,0-24.381,2.343-35.9,6.963
	C14.795,30.376-9.271,86.682,10.541,136.078c14.771,36.821,49.946,60.615,89.612,60.615c12.302,0,24.38-2.344,35.901-6.965
	c49.396-19.813,73.465-76.118,53.652-125.514C174.937,27.393,139.761,3.6,100.093,3.6z"/>
<path fill="#FFFFFF" d="M63.553,25.254c0,0-4.194,11.165,2.26,15.18c8.949,5.568,25.031,14.651,14.319,44.158
	c-9.688,26.688,10.009,50.59,32.504,60.448c40.477,17.733,37.396,38.176,37.396,38.176c-6.812-27.355-38.814-31.03-38.814-31.03
	c-22.434-3.907-30.989,12.431-43.672,9.291c-21.507-5.323-26.734,3.598-26.734,3.598c48.375,54.771,113.713,23.2,113.713,23.2
	c13.612-18.841,16.438-43.559,16.32-61.843C170.346,50.736,63.553,25.254,63.553,25.254z"/>
<ellipse transform="matrix(0.8966 0.4428 -0.4428 0.8966 28.637 -4.5207)" fill="#FFFFFF" cx="24" cy="59.071" rx="3.094" ry="6.189"/>
<path fill="#FFFFFF" d="M80.153,16.655c-3.347,0.7-6.343-0.088-6.693-1.76c-0.349-1.674,2.083-3.596,5.426-4.296
	c3.346-0.7,6.34,0.088,6.688,1.762C85.927,14.031,83.498,15.954,80.153,16.655z"/>
<path fill="#FFFFFF" d="M26.017,150.449c-2.079-2.714-2.669-5.754-1.314-6.795c1.355-1.039,4.144,0.313,6.223,3.023
	c2.081,2.714,2.67,5.753,1.316,6.796C30.883,154.514,28.098,153.157,26.017,150.449z"/>
<path fill="#FFFFFF" d="M178.644,64.518c-1.522-3.062-1.516-6.159,0.015-6.92c1.528-0.762,4.002,1.103,5.524,4.163
	c1.523,3.06,1.517,6.159-0.013,6.922C182.637,69.441,180.167,67.578,178.644,64.518z"/>
<path fill="#FFFFFF" d="M173.419,145.522c1.863-2.867,4.533-4.437,5.969-3.508c1.435,0.929,1.085,4.008-0.773,6.874
	c-1.863,2.867-4.535,4.439-5.973,3.509C171.213,151.467,171.556,148.388,173.419,145.522z"/>
<path fill="#FFFFFF" d="M76.103,59.28c-2.354,2.236-5.802,2.425-7.705,0.424c-1.905-2.002-1.544-5.437,0.806-7.672
	c2.349-2.236,5.8-2.429,7.703-0.425C78.812,53.607,78.449,57.044,76.103,59.28z"/>
<path fill="#FFFFFF" d="M123.198,44.936c-3.156-0.756-5.191-3.548-4.548-6.234c0.646-2.688,3.726-4.253,6.879-3.497
	c3.155,0.755,5.188,3.546,4.543,6.234C129.431,44.126,126.35,45.692,123.198,44.936z"/>
<path fill="#FFFFFF" d="M50.415,107.398c-0.714,3.166-3.479,5.235-6.172,4.626c-2.698-0.607-4.301-3.666-3.586-6.828
	c0.712-3.167,3.476-5.238,6.171-4.629C49.524,101.177,51.13,104.234,50.415,107.398z"/>
<path fill="#FFFFFF" d="M98.391,110.053c-0.401,3.097-3.235,5.284-6.335,4.882c-3.097-0.4-5.286-3.237-4.885-6.334
	c0.403-3.1,3.239-5.285,6.336-4.885C96.606,104.118,98.791,106.955,98.391,110.053z"/>
<path fill="#FFFFFF" d="M85.938,110.135c-17.229,0-40.225-3.207-40.488-3.245l-0.659-0.093l0.162-0.646
	c6.071-24.279,24.673-48.973,26.47-51.316c-0.754-15.142,3.737-35.761,4.843-40.562C42.65,24.913,26.511,54.716,26.35,55.019
	l-1.061-0.562c0.165-0.31,16.841-31.133,51.629-41.641l1.007-0.305l-0.251,1.021c-0.059,0.243-5.946,24.471-5.041,41.461
	l0.012,0.225l-0.138,0.177c-0.199,0.253-19.76,25.466-26.225,50.398c4.471,0.602,30.403,3.953,46.061,2.96
	c1.372-4.008,13.456-38.604,31.507-68.989l1.031,0.613c-19.029,32.032-31.407,68.772-31.529,69.14l-0.128,0.379l-0.401,0.029
	C90.697,110.072,88.375,110.135,85.938,110.135z"/>
<path fill="#FFFFFF" d="M87.933,168.89l-1.02-0.868c-40.477-34.518-41.968-61.435-41.978-61.702l1.199-0.047
	c0.01,0.261,1.503,26.257,40.551,59.972c-0.051-6.276,0.053-33.414,5.163-54.364l1.166,0.284
	c-5.75,23.567-5.119,55.071-5.112,55.386L87.933,168.89z"/>
<path fill="#FFFFFF" d="M180.872,63.405c-0.067-0.136-6.873-13.772-22.494-26.629C144.425,25.292,120.46,12.168,84.78,13.647
	c8.017,2.531,28.262,10.122,39.998,25.19l0.113,0.144l0.072,1.048l-1.197,0.083l-0.047-0.682
	c-14.572-18.561-42.357-25.54-42.637-25.608L77.316,12.9l3.868-0.259c38.053-2.542,63.423,11.233,78,23.244
	c15.801,13.022,22.698,26.854,22.766,26.991L180.872,63.405z"/>
<path fill="#FFFFFF" d="M28.804,150.775l-0.947-1.481c-28.604-44.703-5.524-89.262-5.288-89.707l0.75-1.41l0.363,1.555
	c6.513,27.807,22.147,45.991,22.306,46.172l0.339,0.389l-0.334,0.393c-14.657,17.246-17.011,42.089-17.032,42.338L28.804,150.775z
	 M22.911,61.643c-3.644,7.972-18.959,46.534,5.057,85.574c0.813-5.922,4.384-26.056,16.783-40.921
	C42.479,103.537,29.147,86.577,22.911,61.643z"/>
<path fill="#FFFFFF" d="M177.165,148.923l-0.475-2.022c-0.135-0.569-13.825-57.476-51.454-106.289l-1.072-1.391l1.7,0.444
	c0.312,0.082,31.539,8.355,55.975,24.438l0.168,0.11l0.067,0.188c0.123,0.345,12.127,35.003-4.233,82.558L177.165,148.923z
	 M127.277,41.305c33.051,43.539,47.326,92.952,50.075,103.345c14.666-44.381,4.566-76.907,3.654-79.659
	C160.045,51.245,134.116,43.266,127.277,41.305z"/>
<path fill="#FFFFFF" d="M97.224,188.452c-40.188,0-68.262-36.923-68.55-37.307l0.961-0.718c0.291,0.389,29.555,38.831,70.787,36.746
	l0.06,1.198C99.39,188.426,98.299,188.452,97.224,188.452z"/>
<path fill="#FFFFFF" d="M94.441,110.331l-0.703-0.974c36.914-26.603,87.062-45.133,87.564-45.318l0.413,1.127
	C181.216,65.35,131.218,83.827,94.441,110.331z"/>
<path fill="#FFFFFF" d="M177.085,148.856c-41.65-11.759-84.202-38.752-84.626-39.023l0.645-1.012
	c0.425,0.271,42.83,27.169,84.308,38.881L177.085,148.856z"/>
<path fill="#FFFFFF" d="M107.46,187.891l-0.185-1.187c46.074-7.178,66.95-37.757,67.154-38.064l0.999,0.665
	C175.22,149.618,154.05,180.633,107.46,187.891z"/>
<path fill="#FFFFFF" d="M92.272,109.646c-14.599-23.273-20.82-53.781-20.882-54.086l1.178-0.235
	c0.061,0.304,6.241,30.601,20.722,53.685L92.272,109.646z"/>
<path fill="#FFFFFF" d="M24.248,59.617l-0.501-1.091c0.211-0.095,21.295-9.54,51.574-4.183l-0.208,1.182
	C45.193,50.229,24.455,59.521,24.248,59.617z"/>
<path opacity="0.74" fill="#324051" d="M196.233,61.597c-11.893-29.645-35.951-50.768-64.124-59.934
	c-0.931,0.689-4.278,3.382-5.044,7.155c-0.558,2.732,0.01,10.34,6.69,18.789c3.764,4.765,4.012,22.322-13.126,47.482
	c-17.034,24.997-14.876,58.611,4.937,73.398c32.806,24.482,24.683,36.885,24.683,36.885c-8.97-24.863-23.703-24.515-23.703-24.515
	c-23.425-3.208-24.612,10.929-43.07,17.509c-20.98,7.478-18.686,19.051-18.686,19.051c4.938,1.745,9.721,3.103,14.346,4.137
	c19.272,4.007,39.896,2.578,59.537-5.298C191.753,174.965,217.521,114.677,196.233,61.597z"/>
<linearGradient id="SVGID_7_" gradientUnits="userSpaceOnUse" x1="142.9521" y1="119.9531" x2="226.4502" y2="119.9531">
	<stop  offset="0" style="stop-color:#90A6BB"/>
	<stop  offset="0.2033" style="stop-color:#738397"/>
	<stop  offset="0.5568" style="stop-color:#4D5A6B"/>
	<stop  offset="0.8345" style="stop-color:#374554"/>
	<stop  offset="1" style="stop-color:#2F3D4C"/>
</linearGradient>
<path fill="url(#SVGID_7_)" d="M224.601,42.312c-0.316-0.194-0.7,0.288-0.596,1.217c5.519,48.757-14.904,88.243-30.932,110.943
	c30.087-50.979,16.952-94.074,16.952-94.074c-0.274-0.144-0.567,0.278-0.433,1.046c10.617,59.97-27.574,105.865-32.913,111.933
	c-0.004-0.006-0.009-0.012-0.009-0.012c-0.042,0.059-0.087,0.113-0.132,0.169c-0.309,0.349-0.479,0.532-0.479,0.532l0.026,0.052
	c-12.663,16.286-33.134,23.159-33.134,23.159c23.432,3.121,31.099-15.147,31.099-15.147c2.426-1.461,3.458-2.988,3.785-4.348
	C240.71,110.149,224.601,42.312,224.601,42.312z"/>
</svg>
